<?xml version="1.0" encoding="UTF-8"?><svg id="Camada_2" xmlns="http://www.w3.org/2000/svg" viewBox="0 0 432.8 374.26"><defs><style>.cls-1{fill:#99aab5;}.cls-2{fill:#ccd6dd;}.cls-3{fill:#66757f;}.cls-4{fill:#2538ff;}.cls-5{fill:#0000c8;}.cls-6{fill:#5865f2;}</style></defs><g id="Camada_1-2"><path class="cls-6" d="M320.07,23.89C295.97,12.83,270.13,4.69,243.11.02c-.49-.09-.98.13-1.24.59-3.32,5.91-7,13.62-9.58,19.68-29.06-4.35-57.97-4.35-86.44,0-2.58-6.2-6.39-13.77-9.73-19.68-.25-.44-.75-.66-1.24-.59-27,4.65-52.85,12.8-76.96,23.87-.21.09-.39.24-.51.44C8.4,97.55-5.02,168.98,1.56,239.53c.03.35.22.68.49.89,32.34,23.75,63.67,38.17,94.41,47.72.49.15,1.01-.03,1.33-.44,7.27-9.93,13.76-20.4,19.31-31.42.33-.64.01-1.41-.66-1.67-10.28-3.9-20.07-8.66-29.49-14.06-.75-.44-.8-1.5-.12-2.01,1.98-1.49,3.96-3.03,5.86-4.59.34-.28.82-.35,1.22-.17,61.88,28.25,128.87,28.25,190.01,0,.4-.19.88-.13,1.24.15,1.89,1.56,3.88,3.12,5.87,4.61.69.51.64,1.58-.1,2.01-9.42,5.51-19.21,10.16-29.51,14.04-.67.26-.97,1.04-.64,1.68,5.68,11,12.16,21.47,19.3,31.4.3.42.83.6,1.33.45,30.89-9.56,62.22-23.97,94.56-47.72.28-.21.46-.53.49-.87,7.88-81.56-13.2-152.4-55.9-215.2-.1-.21-.28-.36-.49-.45ZM126.35,196.57c-18.63,0-33.98-17.1-33.98-38.11s15.05-38.11,33.98-38.11,34.28,17.25,33.98,38.11c0,21-15.05,38.11-33.98,38.11ZM251.98,196.57c-18.63,0-33.98-17.1-33.98-38.11s15.05-38.11,33.98-38.11,34.28,17.25,33.98,38.11c0,21-14.9,38.11-33.98,38.11Z"/><path class="cls-5" d="M282.87,354.63c-1.81,14.45-14.99,19.63-29.44,19.63s-24.7-11.72-22.9-26.17l6.54-58.88c1.81-14.45,14.99-26.17,29.44-26.17s42.31,0,22.9,26.17c-19.42,26.17-6.54,65.42-6.54,65.42Z"/><path class="cls-2" d="M432.8,249.96c0,45.15-10.1,81.77-22.57,81.77s-133.78-36.62-133.78-81.77,121.32-81.77,133.78-81.77,22.57,36.62,22.57,81.77Z"/><ellipse class="cls-3" cx="410.23" cy="249.96" rx="22.57" ry="81.77"/><path class="cls-4" d="M315.69,295.76l-91.59-6.54c-32.71,0-32.71-78.5,0-78.5l91.59-6.54c-19.63,19.63-19.63,71.96,0,91.59Z"/><ellipse class="cls-1" cx="403.36" cy="249.96" rx="9.81" ry="28.44"/></g></svg>